# xmcd
#
# Track frame offsets: 
#        150
#        15960
#        30227
#        46332
#        59515
#        75112
#        86527
#        101520
#
# Disc length: 1564 seconds
#
# Revision: 0
# Processed by: cddbd v1.5.1PL0 Copyright (c) Steve Scherf et al.
# Submitted via: ExactAudioCopy v0.95a5
#
DISCID=47061a08
DTITLE=David Madewell - Slim Ranch
DYEAR=2001
DGENRE=Country
TTITLE0=Wondering
TTITLE1=Telephone
TTITLE2=Uzi
TTITLE3=Lover's School
TTITLE4=That's What Hurts
TTITLE5=Rodeo
TTITLE6=Wonder Where I'll Be
TTITLE7=If I Could Sell Your Love
EXTD=
EXTT0=
EXTT1=
EXTT2=
EXTT3=
EXTT4=
EXTT5=
EXTT6=
EXTT7=
PLAYORDER=
